<?xml version="1.0" encoding="utf-8"?>
<!-- Generated by Mocodo 4.2.4 -->
<svg width="713" height="423" viewBox="0 0 713 423" xmlns="http://www.w3.org/2000/svg">
<rect x="0" y="0" width="713" height="423" fill="#f7f7f7" stroke="none" stroke-width="0"/>

<!-- Association KNOW -->
<g>
	<line x1="258" y1="203" x2="138" y2="51" stroke="#d6604d" stroke-width="2"/>
	<line x1="44" y1="51" x2="138" y2="51" stroke="#d6604d" stroke-width="2"/>
	<g>
		<path d="M151 26 a14 14 90 0 1 14 14 V51 h-54 V40 a14 14 90 0 1 14 -14" fill="#f4a582" stroke="#f4a582" stroke-width="0"/>
		<path d="M165 51 v11 a14 14 90 0 1 -14 14 H125 a14 14 90 0 1 -14 -14 V51 H54" fill="#fddbc7" stroke="#fddbc7" stroke-width="0"/>
		<rect x="111" y="26" width="54" height="50" fill="none" rx="14" stroke="#d6604d" stroke-width="2"/>
		<line x1="111" y1="51" x2="165" y2="51" stroke="#d6604d" stroke-width="1"/>
		<text x="118" y="43.75" fill="#000000" font-family="Verdana" font-size="12">KNOW</text>
		<text x="118" y="68.8" fill="#000000" font-family="Verdana" font-size="12">note</text>
	</g>
	<text x="190" y="162.16" fill="#2166ac" font-family="Verdana" font-size="12">0,N</text>
	<text x="84" y="68" fill="#2166ac" font-family="Verdana" font-size="12">0,N</text>
</g>

<!-- Association BE -->
<g>
	<line x1="258" y1="203" x2="258" y2="51" stroke="#d6604d" stroke-width="2"/>
	<line x1="359" y1="51" x2="258" y2="51" stroke="#d6604d" stroke-width="2"/>
	<g>
		<path d="M265 26 a14 14 90 0 1 14 14 V51 h-42 V40 a14 14 90 0 1 14 -14" fill="#f4a582" stroke="#f4a582" stroke-width="0"/>
		<path d="M279 51 v11 a14 14 90 0 1 -14 14 H251 a14 14 90 0 1 -14 -14 V51 H42" fill="#fddbc7" stroke="#fddbc7" stroke-width="0"/>
		<rect x="237" y="26" width="42" height="50" fill="none" rx="14" stroke="#d6604d" stroke-width="2"/>
		<line x1="237" y1="51" x2="279" y2="51" stroke="#d6604d" stroke-width="1"/>
		<text x="250" y="43.75" fill="#000000" font-family="Verdana" font-size="12">BE</text>
		<text x="244" y="68.8" fill="#000000" font-family="Verdana" font-size="12">note</text>
	</g>
	<text x="263" y="93" fill="#2166ac" font-family="Verdana" font-size="12">0,N</text>
	<text x="309" y="68" fill="#2166ac" font-family="Verdana" font-size="12">0,N</text>
</g>

<!-- Association BELONG_TO -->
<g>
	<line x1="258" y1="203" x2="459" y2="51" stroke="#d6604d" stroke-width="2"/>
	<line x1="579" y1="203" x2="459" y2="51" stroke="#d6604d" stroke-width="2"/>
	<g>
		<path d="M490 26 a14 14 90 0 1 14 14 V51 h-90 V40 a14 14 90 0 1 14 -14" fill="#f4a582" stroke="#f4a582" stroke-width="0"/>
		<path d="M504 51 v11 a14 14 90 0 1 -14 14 H428 a14 14 90 0 1 -14 -14 V51 H90" fill="#fddbc7" stroke="#fddbc7" stroke-width="0"/>
		<rect x="414" y="26" width="90" height="50" fill="none" rx="14" stroke="#d6604d" stroke-width="2"/>
		<line x1="414" y1="51" x2="504" y2="51" stroke="#d6604d" stroke-width="1"/>
		<text x="421" y="43.75" fill="#000000" font-family="Verdana" font-size="12">BELONG_TO</text>
	</g>
	<text x="304" y="183.3" fill="#2166ac" font-family="Verdana" font-size="12">1,1</text>
	<text x="544.94" y="153" fill="#2166ac" font-family="Verdana" font-size="12">0,N</text>
</g>

<!-- Association INTEGRATE -->
<g>
	<line x1="579" y1="203" x2="579" y2="51" stroke="#d6604d" stroke-width="2"/>
	<line x1="679" y1="51" x2="579" y2="51" stroke="#d6604d" stroke-width="2"/>
	<g>
		<path d="M608 26 a14 14 90 0 1 14 14 V51 h-86 V40 a14 14 90 0 1 14 -14" fill="#f4a582" stroke="#f4a582" stroke-width="0"/>
		<path d="M622 51 v11 a14 14 90 0 1 -14 14 H550 a14 14 90 0 1 -14 -14 V51 H86" fill="#fddbc7" stroke="#fddbc7" stroke-width="0"/>
		<rect x="536" y="26" width="86" height="50" fill="none" rx="14" stroke="#d6604d" stroke-width="2"/>
		<line x1="536" y1="51" x2="622" y2="51" stroke="#d6604d" stroke-width="1"/>
		<text x="544" y="43.75" fill="#000000" font-family="Verdana" font-size="12">INTEGRATE</text>
	</g>
	<text x="584" y="153" fill="#2166ac" font-family="Verdana" font-size="12">1,1</text>
	<text x="627" y="68" fill="#2166ac" font-family="Verdana" font-size="12">0,N</text>
</g>

<!-- Association HAVE -->
<g>
	<line x1="258" y1="203" x2="138" y2="203" stroke="#d6604d" stroke-width="2"/>
	<line x1="44" y1="203" x2="138" y2="203" stroke="#d6604d" stroke-width="2"/>
	<g>
		<path d="M148 178 a14 14 90 0 1 14 14 V203 h-48 V192 a14 14 90 0 1 14 -14" fill="#f4a582" stroke="#f4a582" stroke-width="0"/>
		<path d="M162 203 v11 a14 14 90 0 1 -14 14 H128 a14 14 90 0 1 -14 -14 V203 H48" fill="#fddbc7" stroke="#fddbc7" stroke-width="0"/>
		<rect x="114" y="178" width="48" height="50" fill="none" rx="14" stroke="#d6604d" stroke-width="2"/>
		<line x1="114" y1="203" x2="162" y2="203" stroke="#d6604d" stroke-width="1"/>
		<text x="121" y="195.75" fill="#000000" font-family="Verdana" font-size="12">HAVE</text>
		<text x="121" y="220.8" fill="#000000" font-family="Verdana" font-size="12">value</text>
	</g>
	<text x="190" y="220" fill="#2166ac" font-family="Verdana" font-size="12">0,N</text>
	<text x="84" y="220" fill="#2166ac" font-family="Verdana" font-size="12">0,N</text>
</g>

<!-- Association OWN -->
<g>
	<line x1="459" y1="203" x2="359" y2="203" stroke="#d6604d" stroke-width="2"/>
	<line x1="258" y1="203" x2="359" y2="203" stroke="#d6604d" stroke-width="2"/>
	<g>
		<path d="M368 178 a14 14 90 0 1 14 14 V203 h-46 V192 a14 14 90 0 1 14 -14" fill="#f4a582" stroke="#f4a582" stroke-width="0"/>
		<path d="M382 203 v11 a14 14 90 0 1 -14 14 H350 a14 14 90 0 1 -14 -14 V203 H46" fill="#fddbc7" stroke="#fddbc7" stroke-width="0"/>
		<rect x="336" y="178" width="46" height="50" fill="none" rx="14" stroke="#d6604d" stroke-width="2"/>
		<line x1="336" y1="203" x2="382" y2="203" stroke="#d6604d" stroke-width="1"/>
		<text x="344" y="195.75" fill="#000000" font-family="Verdana" font-size="12">OWN</text>
	</g>
	<text x="395" y="220" fill="#2166ac" font-family="Verdana" font-size="12">0,N</text>
	<text x="304" y="220" fill="#2166ac" font-family="Verdana" font-size="12">1,1</text>
</g>

<!-- Association HOLD -->
<g>
	<line x1="579" y1="203" x2="679" y2="203" stroke="#d6604d" stroke-width="2"/>
	<line x1="679" y1="372" x2="679" y2="203" stroke="#d6604d" stroke-width="2"/>
	<g>
		<path d="M690 178 a14 14 90 0 1 14 14 V203 h-50 V192 a14 14 90 0 1 14 -14" fill="#f4a582" stroke="#f4a582" stroke-width="0"/>
		<path d="M704 203 v11 a14 14 90 0 1 -14 14 H668 a14 14 90 0 1 -14 -14 V203 H50" fill="#fddbc7" stroke="#fddbc7" stroke-width="0"/>
		<rect x="654" y="178" width="50" height="50" fill="none" rx="14" stroke="#d6604d" stroke-width="2"/>
		<line x1="654" y1="203" x2="704" y2="203" stroke="#d6604d" stroke-width="1"/>
		<text x="662" y="195.75" fill="#000000" font-family="Verdana" font-size="12">HOLD</text>
	</g>
	<text x="624" y="220" fill="#2166ac" font-family="Verdana" font-size="12">0,N</text>
	<text x="684" y="339" fill="#2166ac" font-family="Verdana" font-size="12">1,1</text>
</g>

<!-- Association POSSESS -->
<g>
	<line x1="258" y1="203" x2="258" y2="372" stroke="#d6604d" stroke-width="2"/>
	<line x1="138" y1="372" x2="258" y2="372" stroke="#d6604d" stroke-width="2"/>
	<g>
		<path d="M280 347 a14 14 90 0 1 14 14 V372 h-72 V361 a14 14 90 0 1 14 -14" fill="#f4a582" stroke="#f4a582" stroke-width="0"/>
		<path d="M294 372 v11 a14 14 90 0 1 -14 14 H236 a14 14 90 0 1 -14 -14 V372 H72" fill="#fddbc7" stroke="#fddbc7" stroke-width="0"/>
		<rect x="222" y="347" width="72" height="50" fill="none" rx="14" stroke="#d6604d" stroke-width="2"/>
		<line x1="222" y1="372" x2="294" y2="372" stroke="#d6604d" stroke-width="1"/>
		<text x="229" y="364.75" fill="#000000" font-family="Verdana" font-size="12">POSSESS</text>
		<text x="229" y="389.8" fill="#000000" font-family="Verdana" font-size="12">note</text>
	</g>
	<text x="231" y="322" fill="#2166ac" font-family="Verdana" font-size="12">0,N</text>
	<text x="195" y="389" fill="#2166ac" font-family="Verdana" font-size="12">0,N</text>
</g>

<!-- Association MASTER -->
<g>
	<line x1="258" y1="203" x2="359" y2="372" stroke="#d6604d" stroke-width="2"/>
	<line x1="459" y1="372" x2="359" y2="372" stroke="#d6604d" stroke-width="2"/>
	<g>
		<path d="M378 347 a14 14 90 0 1 14 14 V372 h-66 V361 a14 14 90 0 1 14 -14" fill="#f4a582" stroke="#f4a582" stroke-width="0"/>
		<path d="M392 372 v11 a14 14 90 0 1 -14 14 H340 a14 14 90 0 1 -14 -14 V372 H66" fill="#fddbc7" stroke="#fddbc7" stroke-width="0"/>
		<rect x="326" y="347" width="66" height="50" fill="none" rx="14" stroke="#d6604d" stroke-width="2"/>
		<line x1="326" y1="372" x2="392" y2="372" stroke="#d6604d" stroke-width="1"/>
		<text x="334" y="364.75" fill="#000000" font-family="Verdana" font-size="12">MASTER</text>
		<text x="333" y="389.8" fill="#000000" font-family="Verdana" font-size="12">note</text>
	</g>
	<text x="304" y="268.23" fill="#2166ac" font-family="Verdana" font-size="12">0,N</text>
	<text x="409" y="389" fill="#2166ac" font-family="Verdana" font-size="12">0,N</text>
</g>

<!-- Association INCLUDE -->
<g>
	<line x1="459" y1="203" x2="579" y2="372" stroke="#d6604d" stroke-width="2"/>
	<line x1="579" y1="203" x2="579" y2="372" stroke="#d6604d" stroke-width="2"/>
	<g>
		<path d="M600 347 a14 14 90 0 1 14 14 V372 h-70 V361 a14 14 90 0 1 14 -14" fill="#f4a582" stroke="#f4a582" stroke-width="0"/>
		<path d="M614 372 v11 a14 14 90 0 1 -14 14 H558 a14 14 90 0 1 -14 -14 V372 H70" fill="#fddbc7" stroke="#fddbc7" stroke-width="0"/>
		<rect x="544" y="347" width="70" height="50" fill="none" rx="14" stroke="#d6604d" stroke-width="2"/>
		<line x1="544" y1="372" x2="614" y2="372" stroke="#d6604d" stroke-width="1"/>
		<text x="551" y="364.75" fill="#000000" font-family="Verdana" font-size="12">INCLUDE</text>
	</g>
	<text x="473.61" y="271" fill="#2166ac" font-family="Verdana" font-size="12">0,N</text>
	<text x="584" y="262" fill="#2166ac" font-family="Verdana" font-size="12">1,1</text>
</g>

<!-- Entity SKILL -->
<g>
	<g>
		<rect x="9" y="9" width="70" height="25" fill="#92c5de" stroke="none" stroke-width="0" opacity="1"/>
		<rect x="9" y="34" width="70" height="59" fill="#d1e5f0" stroke="none" stroke-width="0" opacity="1"/>
		<rect x="9" y="9" width="70" height="84" fill="none" stroke="#4393c3" stroke-width="2" opacity="1"/>
		<line x1="9" y1="34" x2="79" y2="34" stroke="#4393c3" stroke-width="1"/>
	</g>
	<text x="31" y="26.75" fill="#000000" font-family="Verdana" font-size="12">Skill</text>
	<text x="14" y="51.8" fill="#000000" font-family="Verdana" font-size="12">skill_code</text>
	<line x1="14" y1="54" x2="74" y2="54" stroke="#000000" stroke-width="1"/>
	<text x="14" y="68.8" fill="#000000" font-family="Verdana" font-size="12">name</text>
	<text x="14" y="85.8" fill="#000000" font-family="Verdana" font-size="12">is_active</text>
</g>

<!-- Entity CLASS -->
<g>
	<g>
		<rect x="336" y="26" width="46" height="25" fill="#92c5de" stroke="none" stroke-width="0" opacity="1"/>
		<rect x="336" y="51" width="46" height="25" fill="#d1e5f0" stroke="none" stroke-width="0" opacity="1"/>
		<rect x="336" y="26" width="46" height="50" fill="none" stroke="#4393c3" stroke-width="2" opacity="1"/>
		<line x1="336" y1="51" x2="382" y2="51" stroke="#4393c3" stroke-width="1"/>
	</g>
	<text x="343" y="43.75" fill="#000000" font-family="Verdana" font-size="12">Class</text>
	<text x="341" y="68.8" fill="#000000" font-family="Verdana" font-size="12">name</text>
	<line x1="341" y1="71" x2="376" y2="71" stroke="#000000" stroke-width="1"/>
</g>

<!-- Entity STATUS -->
<g>
	<g>
		<rect x="654" y="26" width="50" height="25" fill="#92c5de" stroke="none" stroke-width="0" opacity="1"/>
		<rect x="654" y="51" width="50" height="25" fill="#d1e5f0" stroke="none" stroke-width="0" opacity="1"/>
		<rect x="654" y="26" width="50" height="50" fill="none" stroke="#4393c3" stroke-width="2" opacity="1"/>
		<line x1="654" y1="51" x2="704" y2="51" stroke="#4393c3" stroke-width="1"/>
	</g>
	<text x="659" y="43.75" fill="#000000" font-family="Verdana" font-size="12">Status</text>
	<text x="659" y="68.8" fill="#000000" font-family="Verdana" font-size="12">value</text>
	<line x1="659" y1="71" x2="692" y2="71" stroke="#000000" stroke-width="1"/>
</g>

<!-- Entity STAT -->
<g>
	<g>
		<rect x="9" y="169" width="70" height="25" fill="#92c5de" stroke="none" stroke-width="0" opacity="1"/>
		<rect x="9" y="194" width="70" height="43" fill="#d1e5f0" stroke="none" stroke-width="0" opacity="1"/>
		<rect x="9" y="169" width="70" height="68" fill="none" stroke="#4393c3" stroke-width="2" opacity="1"/>
		<line x1="9" y1="194" x2="79" y2="194" stroke="#4393c3" stroke-width="1"/>
	</g>
	<text x="31" y="186.75" fill="#000000" font-family="Verdana" font-size="12">Stat</text>
	<text x="14" y="211.8" fill="#000000" font-family="Verdana" font-size="12">stat_code</text>
	<line x1="14" y1="214" x2="74" y2="214" stroke="#000000" stroke-width="1"/>
	<text x="14" y="228.8" fill="#000000" font-family="Verdana" font-size="12">name</text>
</g>

<!-- Entity CHARACTER -->
<g>
	<g>
		<rect x="217" y="101" width="82" height="25" fill="#92c5de" stroke="none" stroke-width="0" opacity="1"/>
		<rect x="217" y="126" width="82" height="179" fill="#d1e5f0" stroke="none" stroke-width="0" opacity="1"/>
		<rect x="217" y="101" width="82" height="204" fill="none" stroke="#4393c3" stroke-width="2" opacity="1"/>
		<line x1="217" y1="126" x2="299" y2="126" stroke="#4393c3" stroke-width="1"/>
	</g>
	<text x="228" y="118.75" fill="#000000" font-family="Verdana" font-size="12">Character</text>
	<text x="222" y="143.8" fill="#000000" font-family="Verdana" font-size="12">char_code</text>
	<line x1="222" y1="146" x2="285" y2="146" stroke="#000000" stroke-width="1"/>
	<text x="222" y="160.8" fill="#000000" font-family="Verdana" font-size="12">stats</text>
	<text x="222" y="177.8" fill="#000000" font-family="Verdana" font-size="12">background</text>
	<text x="222" y="194.8" fill="#000000" font-family="Verdana" font-size="12">spell</text>
	<text x="222" y="211.8" fill="#000000" font-family="Verdana" font-size="12">inventory</text>
	<text x="222" y="228.8" fill="#000000" font-family="Verdana" font-size="12">class</text>
	<text x="222" y="245.8" fill="#000000" font-family="Verdana" font-size="12">name</text>
	<text x="222" y="262.8" fill="#000000" font-family="Verdana" font-size="12">experience</text>
	<text x="222" y="279.8" fill="#000000" font-family="Verdana" font-size="12">level</text>
	<text x="222" y="296.8" fill="#000000" font-family="Verdana" font-size="12">health</text>
</g>

<!-- Entity USER -->
<g>
	<g>
		<rect x="422" y="152" width="74" height="25" fill="#92c5de" stroke="none" stroke-width="0" opacity="1"/>
		<rect x="422" y="177" width="74" height="77" fill="#d1e5f0" stroke="none" stroke-width="0" opacity="1"/>
		<rect x="422" y="152" width="74" height="102" fill="none" stroke="#4393c3" stroke-width="2" opacity="1"/>
		<line x1="422" y1="177" x2="496" y2="177" stroke="#4393c3" stroke-width="1"/>
	</g>
	<text x="445" y="169.75" fill="#000000" font-family="Verdana" font-size="12">User</text>
	<text x="427" y="194.8" fill="#000000" font-family="Verdana" font-size="12">code_user</text>
	<line x1="427" y1="197" x2="490" y2="197" stroke="#000000" stroke-width="1"/>
	<text x="427" y="211.8" fill="#000000" font-family="Verdana" font-size="12">pseudo</text>
	<text x="427" y="228.8" fill="#000000" font-family="Verdana" font-size="12">email</text>
	<text x="427" y="245.8" fill="#000000" font-family="Verdana" font-size="12">password</text>
</g>

<!-- Entity GAME -->
<g>
	<g>
		<rect x="539" y="161" width="80" height="25" fill="#92c5de" stroke="none" stroke-width="0" opacity="1"/>
		<rect x="539" y="186" width="80" height="59" fill="#d1e5f0" stroke="none" stroke-width="0" opacity="1"/>
		<rect x="539" y="161" width="80" height="84" fill="none" stroke="#4393c3" stroke-width="2" opacity="1"/>
		<line x1="539" y1="186" x2="619" y2="186" stroke="#4393c3" stroke-width="1"/>
	</g>
	<text x="561" y="178.75" fill="#000000" font-family="Verdana" font-size="12">Game</text>
	<text x="544" y="203.8" fill="#000000" font-family="Verdana" font-size="12">game_code</text>
	<line x1="544" y1="206" x2="614" y2="206" stroke="#000000" stroke-width="1"/>
	<text x="544" y="220.8" fill="#000000" font-family="Verdana" font-size="12">name</text>
	<text x="544" y="237.8" fill="#000000" font-family="Verdana" font-size="12">campaign</text>
</g>

<!-- Entity INVENTORY -->
<g>
	<g>
		<rect x="86" y="330" width="104" height="25" fill="#92c5de" stroke="none" stroke-width="0" opacity="1"/>
		<rect x="86" y="355" width="104" height="59" fill="#d1e5f0" stroke="none" stroke-width="0" opacity="1"/>
		<rect x="86" y="330" width="104" height="84" fill="none" stroke="#4393c3" stroke-width="2" opacity="1"/>
		<line x1="86" y1="355" x2="190" y2="355" stroke="#4393c3" stroke-width="1"/>
	</g>
	<text x="108" y="347.75" fill="#000000" font-family="Verdana" font-size="12">Inventory</text>
	<text x="91" y="372.8" fill="#000000" font-family="Verdana" font-size="12">inventory_code</text>
	<line x1="91" y1="375" x2="185" y2="375" stroke="#000000" stroke-width="1"/>
	<text x="91" y="389.8" fill="#000000" font-family="Verdana" font-size="12">name</text>
	<text x="91" y="406.8" fill="#000000" font-family="Verdana" font-size="12">is_equipped</text>
</g>

<!-- Entity SPELL -->
<g>
	<g>
		<rect x="436" y="347" width="46" height="25" fill="#92c5de" stroke="none" stroke-width="0" opacity="1"/>
		<rect x="436" y="372" width="46" height="25" fill="#d1e5f0" stroke="none" stroke-width="0" opacity="1"/>
		<rect x="436" y="347" width="46" height="50" fill="none" stroke="#4393c3" stroke-width="2" opacity="1"/>
		<line x1="436" y1="372" x2="482" y2="372" stroke="#4393c3" stroke-width="1"/>
	</g>
	<text x="444" y="364.75" fill="#000000" font-family="Verdana" font-size="12">Spell</text>
	<text x="441" y="389.8" fill="#000000" font-family="Verdana" font-size="12">name</text>
	<line x1="441" y1="392" x2="476" y2="392" stroke="#000000" stroke-width="1"/>
</g>

<!-- Entity NOTE -->
<g>
	<g>
		<rect x="657" y="347" width="44" height="25" fill="#92c5de" stroke="none" stroke-width="0" opacity="1"/>
		<rect x="657" y="372" width="44" height="25" fill="#d1e5f0" stroke="none" stroke-width="0" opacity="1"/>
		<rect x="657" y="347" width="44" height="50" fill="none" stroke="#4393c3" stroke-width="2" opacity="1"/>
		<line x1="657" y1="372" x2="701" y2="372" stroke="#4393c3" stroke-width="1"/>
	</g>
	<text x="665" y="364.75" fill="#000000" font-family="Verdana" font-size="12">Note</text>
	<text x="662" y="389.8" fill="#000000" font-family="Verdana" font-size="12">value</text>
	<line x1="662" y1="392" x2="695" y2="392" stroke="#000000" stroke-width="1"/>
</g>
</svg>