<?xml version="1.0" encoding="utf-8"?>
<!-- Generated by Mocodo 4.2.4 -->
<svg width="1076" height="491" viewBox="0 0 1076 491" xmlns="http://www.w3.org/2000/svg">
<rect x="0" y="0" width="1076" height="491" fill="#f7f7f7" stroke="none" stroke-width="0"/>

<!-- Entity CLASS -->
<g>
	<g>
		<rect x="124" y="17" width="46" height="25" fill="#92c5de" stroke="none" stroke-width="0" opacity="1"/>
		<rect x="124" y="42" width="46" height="43" fill="#d1e5f0" stroke="none" stroke-width="0" opacity="1"/>
		<rect x="124" y="17" width="46" height="68" fill="none" stroke="#4393c3" stroke-width="2" opacity="1"/>
		<line x1="124" y1="42" x2="170" y2="42" stroke="#4393c3" stroke-width="1"/>
	</g>
	<text x="132" y="34.75" fill="#000000" font-family="Verdana" font-size="12">class</text>
	<text x="129" y="59.8" fill="#000000" font-family="Verdana" font-size="12">id</text>
	<line x1="129" y1="62" x2="141" y2="62" stroke="#000000" stroke-width="1"/>
	<text x="129" y="76.8" fill="#000000" font-family="Verdana" font-size="12">name</text>
</g>

<!-- Entity CHAR_IS_CLASS -->
<g>
	<g>
		<rect x="251" y="9" width="92" height="25" fill="#92c5de" stroke="none" stroke-width="0" opacity="1"/>
		<rect x="251" y="34" width="92" height="59" fill="#d1e5f0" stroke="none" stroke-width="0" opacity="1"/>
		<rect x="251" y="9" width="92" height="84" fill="none" stroke="#4393c3" stroke-width="2" opacity="1"/>
		<line x1="251" y1="34" x2="343" y2="34" stroke="#4393c3" stroke-width="1"/>
	</g>
	<text x="257" y="26.75" fill="#000000" font-family="Verdana" font-size="12">char_is_class</text>
	<text x="256" y="51.8" fill="#000000" font-family="Verdana" font-size="12">#char_id</text>
	<line x1="256" y1="54" x2="311" y2="54" stroke="#000000" stroke-width="1"/>
	<text x="256" y="68.8" fill="#000000" font-family="Verdana" font-size="12">#class_id</text>
	<line x1="256" y1="71" x2="314" y2="71" stroke="#000000" stroke-width="1"/>
	<text x="256" y="85.8" fill="#000000" font-family="Verdana" font-size="12">note</text>
</g>

<!-- Entity CHAR_KNOWS_SKILL -->
<g>
	<g>
		<rect x="745" y="9" width="114" height="25" fill="#92c5de" stroke="none" stroke-width="0" opacity="1"/>
		<rect x="745" y="34" width="114" height="59" fill="#d1e5f0" stroke="none" stroke-width="0" opacity="1"/>
		<rect x="745" y="9" width="114" height="84" fill="none" stroke="#4393c3" stroke-width="2" opacity="1"/>
		<line x1="745" y1="34" x2="859" y2="34" stroke="#4393c3" stroke-width="1"/>
	</g>
	<text x="750" y="26.75" fill="#000000" font-family="Verdana" font-size="12">char_knows_skill</text>
	<text x="750" y="51.8" fill="#000000" font-family="Verdana" font-size="12">#char_id</text>
	<line x1="750" y1="54" x2="805" y2="54" stroke="#000000" stroke-width="1"/>
	<text x="750" y="68.8" fill="#000000" font-family="Verdana" font-size="12">#skill_id</text>
	<line x1="750" y1="71" x2="802" y2="71" stroke="#000000" stroke-width="1"/>
	<text x="750" y="85.8" fill="#000000" font-family="Verdana" font-size="12">note</text>
</g>

<!-- Entity SKILL -->
<g>
	<g>
		<rect x="961" y="9" width="64" height="25" fill="#92c5de" stroke="none" stroke-width="0" opacity="1"/>
		<rect x="961" y="34" width="64" height="59" fill="#d1e5f0" stroke="none" stroke-width="0" opacity="1"/>
		<rect x="961" y="9" width="64" height="84" fill="none" stroke="#4393c3" stroke-width="2" opacity="1"/>
		<line x1="961" y1="34" x2="1025" y2="34" stroke="#4393c3" stroke-width="1"/>
	</g>
	<text x="981" y="26.75" fill="#000000" font-family="Verdana" font-size="12">skill</text>
	<text x="966" y="51.8" fill="#000000" font-family="Verdana" font-size="12">id</text>
	<line x1="966" y1="54" x2="978" y2="54" stroke="#000000" stroke-width="1"/>
	<text x="966" y="68.8" fill="#000000" font-family="Verdana" font-size="12">name</text>
	<text x="966" y="85.8" fill="#000000" font-family="Verdana" font-size="12">is_active</text>
</g>

<!-- Entity STAT -->
<g>
	<g>
		<rect x="124" y="161" width="46" height="25" fill="#92c5de" stroke="none" stroke-width="0" opacity="1"/>
		<rect x="124" y="186" width="46" height="43" fill="#d1e5f0" stroke="none" stroke-width="0" opacity="1"/>
		<rect x="124" y="161" width="46" height="68" fill="none" stroke="#4393c3" stroke-width="2" opacity="1"/>
		<line x1="124" y1="186" x2="170" y2="186" stroke="#4393c3" stroke-width="1"/>
	</g>
	<text x="135" y="178.75" fill="#000000" font-family="Verdana" font-size="12">stat</text>
	<text x="129" y="203.8" fill="#000000" font-family="Verdana" font-size="12">id</text>
	<line x1="129" y1="206" x2="141" y2="206" stroke="#000000" stroke-width="1"/>
	<text x="129" y="220.8" fill="#000000" font-family="Verdana" font-size="12">name</text>
</g>

<!-- Entity CHAR_HAS_STAT -->
<g>
	<g>
		<rect x="249" y="153" width="96" height="25" fill="#92c5de" stroke="none" stroke-width="0" opacity="1"/>
		<rect x="249" y="178" width="96" height="59" fill="#d1e5f0" stroke="none" stroke-width="0" opacity="1"/>
		<rect x="249" y="153" width="96" height="84" fill="none" stroke="#4393c3" stroke-width="2" opacity="1"/>
		<line x1="249" y1="178" x2="345" y2="178" stroke="#4393c3" stroke-width="1"/>
	</g>
	<text x="254" y="170.75" fill="#000000" font-family="Verdana" font-size="12">char_has_stat</text>
	<text x="254" y="195.8" fill="#000000" font-family="Verdana" font-size="12">#char_id</text>
	<line x1="254" y1="198" x2="309" y2="198" stroke="#000000" stroke-width="1"/>
	<text x="254" y="212.8" fill="#000000" font-family="Verdana" font-size="12">#stat_id</text>
	<line x1="254" y1="215" x2="306" y2="215" stroke="#000000" stroke-width="1"/>
	<text x="254" y="229.8" fill="#000000" font-family="Verdana" font-size="12">value</text>
</g>

<!-- Entity CHARACTER -->
<g>
	<g>
		<rect x="475" y="76" width="82" height="25" fill="#92c5de" stroke="none" stroke-width="0" opacity="1"/>
		<rect x="475" y="101" width="82" height="213" fill="#d1e5f0" stroke="none" stroke-width="0" opacity="1"/>
		<rect x="475" y="76" width="82" height="238" fill="none" stroke="#4393c3" stroke-width="2" opacity="1"/>
		<line x1="475" y1="101" x2="557" y2="101" stroke="#4393c3" stroke-width="1"/>
	</g>
	<text x="487" y="93.75" fill="#000000" font-family="Verdana" font-size="12">character</text>
	<text x="480" y="118.8" fill="#000000" font-family="Verdana" font-size="12">id</text>
	<line x1="480" y1="121" x2="492" y2="121" stroke="#000000" stroke-width="1"/>
	<text x="480" y="135.8" fill="#000000" font-family="Verdana" font-size="12">stats</text>
	<text x="480" y="152.8" fill="#000000" font-family="Verdana" font-size="12">background</text>
	<text x="480" y="169.8" fill="#000000" font-family="Verdana" font-size="12">spells</text>
	<text x="480" y="186.8" fill="#000000" font-family="Verdana" font-size="12">inventory</text>
	<text x="480" y="203.8" fill="#000000" font-family="Verdana" font-size="12">class</text>
	<text x="480" y="220.8" fill="#000000" font-family="Verdana" font-size="12">name</text>
	<text x="480" y="237.8" fill="#000000" font-family="Verdana" font-size="12">experience</text>
	<text x="480" y="254.8" fill="#000000" font-family="Verdana" font-size="12">level</text>
	<text x="480" y="271.8" fill="#000000" font-family="Verdana" font-size="12">health</text>
	<text x="480" y="288.8" fill="#000000" font-family="Verdana" font-size="12">#game_id</text>
	<text x="480" y="305.8" fill="#000000" font-family="Verdana" font-size="12">#user_id</text>
</g>

<!-- Entity CHAR_POSSESSES_INVENTORY -->
<g>
	<g>
		<rect x="717" y="153" width="170" height="25" fill="#92c5de" stroke="none" stroke-width="0" opacity="1"/>
		<rect x="717" y="178" width="170" height="59" fill="#d1e5f0" stroke="none" stroke-width="0" opacity="1"/>
		<rect x="717" y="153" width="170" height="84" fill="none" stroke="#4393c3" stroke-width="2" opacity="1"/>
		<line x1="717" y1="178" x2="887" y2="178" stroke="#4393c3" stroke-width="1"/>
	</g>
	<text x="722" y="170.75" fill="#000000" font-family="Verdana" font-size="12">char_possesses_inventory</text>
	<text x="722" y="195.8" fill="#000000" font-family="Verdana" font-size="12">#char_id</text>
	<line x1="722" y1="198" x2="777" y2="198" stroke="#000000" stroke-width="1"/>
	<text x="722" y="212.8" fill="#000000" font-family="Verdana" font-size="12">#inventory_id</text>
	<line x1="722" y1="215" x2="808" y2="215" stroke="#000000" stroke-width="1"/>
	<text x="722" y="229.8" fill="#000000" font-family="Verdana" font-size="12">note</text>
</g>

<!-- Entity INVENTORY -->
<g>
	<g>
		<rect x="951" y="153" width="84" height="25" fill="#92c5de" stroke="none" stroke-width="0" opacity="1"/>
		<rect x="951" y="178" width="84" height="59" fill="#d1e5f0" stroke="none" stroke-width="0" opacity="1"/>
		<rect x="951" y="153" width="84" height="84" fill="none" stroke="#4393c3" stroke-width="2" opacity="1"/>
		<line x1="951" y1="178" x2="1035" y2="178" stroke="#4393c3" stroke-width="1"/>
	</g>
	<text x="964" y="170.75" fill="#000000" font-family="Verdana" font-size="12">inventory</text>
	<text x="956" y="195.8" fill="#000000" font-family="Verdana" font-size="12">id</text>
	<line x1="956" y1="198" x2="968" y2="198" stroke="#000000" stroke-width="1"/>
	<text x="956" y="212.8" fill="#000000" font-family="Verdana" font-size="12">name</text>
	<text x="956" y="229.8" fill="#000000" font-family="Verdana" font-size="12">is_equipped</text>
</g>

<!-- Entity NOTE -->
<g>
	<g>
		<rect x="41" y="297" width="74" height="25" fill="#92c5de" stroke="none" stroke-width="0" opacity="1"/>
		<rect x="41" y="322" width="74" height="59" fill="#d1e5f0" stroke="none" stroke-width="0" opacity="1"/>
		<rect x="41" y="297" width="74" height="84" fill="none" stroke="#4393c3" stroke-width="2" opacity="1"/>
		<line x1="41" y1="322" x2="115" y2="322" stroke="#4393c3" stroke-width="1"/>
	</g>
	<text x="64" y="314.75" fill="#000000" font-family="Verdana" font-size="12">note</text>
	<text x="46" y="339.8" fill="#000000" font-family="Verdana" font-size="12">id</text>
	<line x1="46" y1="342" x2="58" y2="342" stroke="#000000" stroke-width="1"/>
	<text x="46" y="356.8" fill="#000000" font-family="Verdana" font-size="12">value</text>
	<text x="46" y="373.8" fill="#000000" font-family="Verdana" font-size="12">#game_id</text>
</g>

<!-- Entity GAME -->
<g>
	<g>
		<rect x="179" y="280" width="76" height="25" fill="#92c5de" stroke="none" stroke-width="0" opacity="1"/>
		<rect x="179" y="305" width="76" height="93" fill="#d1e5f0" stroke="none" stroke-width="0" opacity="1"/>
		<rect x="179" y="280" width="76" height="118" fill="none" stroke="#4393c3" stroke-width="2" opacity="1"/>
		<line x1="179" y1="305" x2="255" y2="305" stroke="#4393c3" stroke-width="1"/>
	</g>
	<text x="200" y="297.75" fill="#000000" font-family="Verdana" font-size="12">game</text>
	<text x="184" y="322.8" fill="#000000" font-family="Verdana" font-size="12">id</text>
	<line x1="184" y1="325" x2="196" y2="325" stroke="#000000" stroke-width="1"/>
	<text x="184" y="339.8" fill="#000000" font-family="Verdana" font-size="12">name</text>
	<text x="184" y="356.8" fill="#000000" font-family="Verdana" font-size="12">campaign</text>
	<text x="184" y="373.8" fill="#000000" font-family="Verdana" font-size="12">#status_id</text>
	<text x="184" y="390.8" fill="#000000" font-family="Verdana" font-size="12">#user_id</text>
</g>

<!-- Entity CHAR_MASTERS_SPELL -->
<g>
	<g>
		<rect x="621" y="297" width="128" height="25" fill="#92c5de" stroke="none" stroke-width="0" opacity="1"/>
		<rect x="621" y="322" width="128" height="59" fill="#d1e5f0" stroke="none" stroke-width="0" opacity="1"/>
		<rect x="621" y="297" width="128" height="84" fill="none" stroke="#4393c3" stroke-width="2" opacity="1"/>
		<line x1="621" y1="322" x2="749" y2="322" stroke="#4393c3" stroke-width="1"/>
	</g>
	<text x="626" y="314.75" fill="#000000" font-family="Verdana" font-size="12">char_masters_spell</text>
	<text x="626" y="339.8" fill="#000000" font-family="Verdana" font-size="12">#char_id</text>
	<line x1="626" y1="342" x2="681" y2="342" stroke="#000000" stroke-width="1"/>
	<text x="626" y="356.8" fill="#000000" font-family="Verdana" font-size="12">#spell_id</text>
	<line x1="626" y1="359" x2="683" y2="359" stroke="#000000" stroke-width="1"/>
	<text x="626" y="373.8" fill="#000000" font-family="Verdana" font-size="12">note</text>
</g>

<!-- Entity SPELL -->
<g>
	<g>
		<rect x="896" y="305" width="46" height="25" fill="#92c5de" stroke="none" stroke-width="0" opacity="1"/>
		<rect x="896" y="330" width="46" height="43" fill="#d1e5f0" stroke="none" stroke-width="0" opacity="1"/>
		<rect x="896" y="305" width="46" height="68" fill="none" stroke="#4393c3" stroke-width="2" opacity="1"/>
		<line x1="896" y1="330" x2="942" y2="330" stroke="#4393c3" stroke-width="1"/>
	</g>
	<text x="905" y="322.75" fill="#000000" font-family="Verdana" font-size="12">spell</text>
	<text x="901" y="347.8" fill="#000000" font-family="Verdana" font-size="12">id</text>
	<line x1="901" y1="350" x2="913" y2="350" stroke="#000000" stroke-width="1"/>
	<text x="901" y="364.8" fill="#000000" font-family="Verdana" font-size="12">name</text>
</g>

<!-- Entity STATUS -->
<g>
	<g>
		<rect x="54" y="406" width="48" height="25" fill="#92c5de" stroke="none" stroke-width="0" opacity="1"/>
		<rect x="54" y="431" width="48" height="43" fill="#d1e5f0" stroke="none" stroke-width="0" opacity="1"/>
		<rect x="54" y="406" width="48" height="68" fill="none" stroke="#4393c3" stroke-width="2" opacity="1"/>
		<line x1="54" y1="431" x2="102" y2="431" stroke="#4393c3" stroke-width="1"/>
	</g>
	<text x="59" y="423.75" fill="#000000" font-family="Verdana" font-size="12">status</text>
	<text x="59" y="448.8" fill="#000000" font-family="Verdana" font-size="12">id</text>
	<line x1="59" y1="451" x2="71" y2="451" stroke="#000000" stroke-width="1"/>
	<text x="59" y="465.8" fill="#000000" font-family="Verdana" font-size="12">value</text>
</g>

<!-- Entity USER -->
<g>
	<g>
		<rect x="343" y="398" width="68" height="25" fill="#92c5de" stroke="none" stroke-width="0" opacity="1"/>
		<rect x="343" y="423" width="68" height="59" fill="#d1e5f0" stroke="none" stroke-width="0" opacity="1"/>
		<rect x="343" y="398" width="68" height="84" fill="none" stroke="#4393c3" stroke-width="2" opacity="1"/>
		<line x1="343" y1="423" x2="411" y2="423" stroke="#4393c3" stroke-width="1"/>
	</g>
	<text x="364" y="415.75" fill="#000000" font-family="Verdana" font-size="12">user</text>
	<text x="348" y="440.8" fill="#000000" font-family="Verdana" font-size="12">id</text>
	<line x1="348" y1="443" x2="360" y2="443" stroke="#000000" stroke-width="1"/>
	<text x="348" y="457.8" fill="#000000" font-family="Verdana" font-size="12">pseudo</text>
	<text x="348" y="474.8" fill="#000000" font-family="Verdana" font-size="12">password</text>
</g>

<!-- Link from &quot;id&quot; (CHAR_IS_CLASS) to &quot;id&quot; (CHARACTER) -->
<path d="M343 47.5 C409 81 387 114.5 475 114.5" fill="none" stroke="#d6604d" stroke-width="2"/>
<polygon points="475 114.5 463 120.5 467 114.5 463 108.5" fill="#d6604d" stroke-width="0"/>
<circle cx="343" cy="47.5" r="2" stroke="#d6604d" stroke-width="2" fill="#d6604d"/>

<!-- Link from &quot;id&quot; (CHAR_IS_CLASS) to &quot;id&quot; (CLASS) -->
<path d="M251 64.5 C210.5 60 224 55.5 170 55.5" fill="none" stroke="#d6604d" stroke-width="2"/>
<polygon points="170 55.5 182 49.5 178 55.5 182 61.5" fill="#d6604d" stroke-width="0"/>
<circle cx="251" cy="64.5" r="2" stroke="#d6604d" stroke-width="2" fill="#d6604d"/>

<!-- Link from &quot;id&quot; (CHAR_KNOWS_SKILL) to &quot;id&quot; (CHARACTER) -->
<path d="M745 47.5 C651 81 682.33 114.5 557 114.5" fill="none" stroke="#d6604d" stroke-width="2"/>
<polygon points="557 114.5 569 108.5 565 114.5 569 120.5" fill="#d6604d" stroke-width="0"/>
<circle cx="745" cy="47.5" r="2" stroke="#d6604d" stroke-width="2" fill="#d6604d"/>

<!-- Link from &quot;id&quot; (CHAR_KNOWS_SKILL) to &quot;id&quot; (SKILL) -->
<path d="M859 64.5 C910 56 893 47.5 961 47.5" fill="none" stroke="#d6604d" stroke-width="2"/>
<polygon points="961 47.5 949 53.5 953 47.5 949 41.5" fill="#d6604d" stroke-width="0"/>
<circle cx="859" cy="64.5" r="2" stroke="#d6604d" stroke-width="2" fill="#d6604d"/>

<!-- Link from &quot;id&quot; (CHAR_HAS_STAT) to &quot;id&quot; (CHARACTER) -->
<path d="M345 191.5 C410 153 388.33 114.5 475 114.5" fill="none" stroke="#d6604d" stroke-width="2"/>
<polygon points="475 114.5 463 120.5 467 114.5 463 108.5" fill="#d6604d" stroke-width="0"/>
<circle cx="345" cy="191.5" r="2" stroke="#d6604d" stroke-width="2" fill="#d6604d"/>

<!-- Link from &quot;id&quot; (CHAR_HAS_STAT) to &quot;id&quot; (STAT) -->
<path d="M249 208.5 C209.5 204 222.67 199.5 170 199.5" fill="none" stroke="#d6604d" stroke-width="2"/>
<polygon points="170 199.5 182 193.5 178 199.5 182 205.5" fill="#d6604d" stroke-width="0"/>
<circle cx="249" cy="208.5" r="2" stroke="#d6604d" stroke-width="2" fill="#d6604d"/>

<!-- Link from &quot;id&quot; (CHARACTER) to &quot;id&quot; (GAME) -->
<path d="M475 284.5 C365 301.5 401.67 318.5 255 318.5" fill="none" stroke="#d6604d" stroke-width="2"/>
<polygon points="255 318.5 267 312.5 263 318.5 267 324.5" fill="#d6604d" stroke-width="0"/>
<circle cx="475" cy="284.5" r="2" stroke="#d6604d" stroke-width="2" fill="#d6604d"/>

<!-- Link from &quot;id&quot; (CHARACTER) to &quot;id&quot; (USER) -->
<path d="M475 301.5 C443 369 453.67 436.5 411 436.5" fill="none" stroke="#d6604d" stroke-width="2"/>
<polygon points="411 436.5 423 430.5 419 436.5 423 442.5" fill="#d6604d" stroke-width="0"/>
<circle cx="475" cy="301.5" r="2" stroke="#d6604d" stroke-width="2" fill="#d6604d"/>

<!-- Link from &quot;id&quot; (CHAR_POSSESSES_INVENTORY) to &quot;id&quot; (CHARACTER) -->
<path d="M717 191.5 C637 153 663.67 114.5 557 114.5" fill="none" stroke="#d6604d" stroke-width="2"/>
<polygon points="557 114.5 569 108.5 565 114.5 569 120.5" fill="#d6604d" stroke-width="0"/>
<circle cx="717" cy="191.5" r="2" stroke="#d6604d" stroke-width="2" fill="#d6604d"/>

<!-- Link from &quot;id&quot; (CHAR_POSSESSES_INVENTORY) to &quot;id&quot; (INVENTORY) -->
<path d="M887 208.5 C919 200 908.33 191.5 951 191.5" fill="none" stroke="#d6604d" stroke-width="2"/>
<polygon points="951 191.5 939 197.5 943 191.5 939 185.5" fill="#d6604d" stroke-width="0"/>
<circle cx="887" cy="208.5" r="2" stroke="#d6604d" stroke-width="2" fill="#d6604d"/>

<!-- Link from &quot;id&quot; (NOTE) to &quot;id&quot; (GAME) -->
<path d="M115 369.5 C147 344 136.33 318.5 179 318.5" fill="none" stroke="#d6604d" stroke-width="2"/>
<polygon points="179 318.5 167 324.5 171 318.5 167 312.5" fill="#d6604d" stroke-width="0"/>
<circle cx="115" cy="369.5" r="2" stroke="#d6604d" stroke-width="2" fill="#d6604d"/>

<!-- Link from &quot;id&quot; (GAME) to &quot;id&quot; (STATUS) -->
<path d="M179 369.5 C140.5 407 153.33 444.5 102 444.5" fill="none" stroke="#d6604d" stroke-width="2"/>
<polygon points="102 444.5 114 438.5 110 444.5 114 450.5" fill="#d6604d" stroke-width="0"/>
<circle cx="179" cy="369.5" r="2" stroke="#d6604d" stroke-width="2" fill="#d6604d"/>

<!-- Link from &quot;id&quot; (GAME) to &quot;id&quot; (USER) -->
<path d="M255 386.5 C299 411.5 284.33 436.5 343 436.5" fill="none" stroke="#d6604d" stroke-width="2"/>
<polygon points="343 436.5 331 442.5 335 436.5 331 430.5" fill="#d6604d" stroke-width="0"/>
<circle cx="255" cy="386.5" r="2" stroke="#d6604d" stroke-width="2" fill="#d6604d"/>

<!-- Link from &quot;id&quot; (CHAR_MASTERS_SPELL) to &quot;id&quot; (CHARACTER) -->
<path d="M621 335.5 C589 225 599.67 114.5 557 114.5" fill="none" stroke="#d6604d" stroke-width="2"/>
<polygon points="557 114.5 569 108.5 565 114.5 569 120.5" fill="#d6604d" stroke-width="0"/>
<circle cx="621" cy="335.5" r="2" stroke="#d6604d" stroke-width="2" fill="#d6604d"/>

<!-- Link from &quot;id&quot; (CHAR_MASTERS_SPELL) to &quot;id&quot; (SPELL) -->
<path d="M749 352.5 C822.5 348 798 343.5 896 343.5" fill="none" stroke="#d6604d" stroke-width="2"/>
<polygon points="896 343.5 884 349.5 888 343.5 884 337.5" fill="#d6604d" stroke-width="0"/>
<circle cx="749" cy="352.5" r="2" stroke="#d6604d" stroke-width="2" fill="#d6604d"/>
</svg>